inDegrees=no
num_controls=7
num_derivatives=13
num_iterations=78
num_multipliers=7
num_parameters=0
num_slacks=7
num_states=26
objective=0.333899
objective_accelerations=0.037139
objective_balance=0.001333
objective_effort=0.027252
objective_height=0.266702
objective_ligament=0.001473
solver_duration=819.199423
status=Solve_Succeeded
success=true
DataType=double
version=3
OpenSimVersion=4.5
endheader
time	/jointset/ground_pelvis/pelvis_tilt/value	/jointset/ground_pelvis/pelvis_tx/value	/jointset/ground_pelvis/pelvis_ty/value	/jointset/hip_r/hip_flexion_r/value	/jointset/hip_r/hip_adduction_r/value	/jointset/hip_r/hip_rotation_r/value	/jointset/back/lumbar_extension/value	/jointset/patellofemoral_r/patellar_flexion_r/value	/jointset/knee_r/knee_flexion_r/value	/jointset/knee_r/knee_adduction_r/value	/jointset/knee_r/knee_rotation_r/value	/jointset/ankle_r/ankle_angle_r/value	/jointset/subtalar_r/subtalar_angle_r/value	/jointset/ground_pelvis/pelvis_tilt/speed	/jointset/ground_pelvis/pelvis_tx/speed	/jointset/ground_pelvis/pelvis_ty/speed	/jointset/hip_r/hip_flexion_r/speed	/jointset/hip_r/hip_adduction_r/speed	/jointset/hip_r/hip_rotation_r/speed	/jointset/back/lumbar_extension/speed	/jointset/patellofemoral_r/patellar_flexion_r/speed	/jointset/knee_r/knee_flexion_r/speed	/jointset/knee_r/knee_adduction_r/speed	/jointset/knee_r/knee_rotation_r/speed	/jointset/ankle_r/ankle_angle_r/speed	/jointset/subtalar_r/subtalar_angle_r/speed	/forceset/tau_hip_flexion_r	/forceset/tau_hip_adduction_r	/forceset/tau_hip_rotation_r	/forceset/tau_knee_flexion_r	/forceset/tau_ankle_angle_r	/forceset/tau_subtalar_angle_r	/forceset/tau_lumbar_extension	lambda_cid13_p0	lambda_cid14_p0	lambda_cid14_p1	lambda_cid14_p2	lambda_cid14_p3	lambda_cid14_p4	lambda_cid14_p5	/jointset/ground_pelvis/pelvis_tilt/accel	/jointset/ground_pelvis/pelvis_tx/accel	/jointset/ground_pelvis/pelvis_ty/accel	/jointset/hip_r/hip_flexion_r/accel	/jointset/hip_r/hip_adduction_r/accel	/jointset/hip_r/hip_rotation_r/accel	/jointset/back/lumbar_extension/accel	/jointset/patellofemoral_r/patellar_flexion_r/accel	/jointset/knee_r/knee_flexion_r/accel	/jointset/knee_r/knee_adduction_r/accel	/jointset/knee_r/knee_rotation_r/accel	/jointset/ankle_r/ankle_angle_r/accel	/jointset/subtalar_r/subtalar_angle_r/accel	gamma_cid13_p0	gamma_cid14_p0	gamma_cid14_p1	gamma_cid14_p2	gamma_cid14_p3	gamma_cid14_p4	gamma_cid14_p5
1.5	-0.1112921670549227	0.03792463246786731	0.8154891005826745	0.8334544791126458	-0.226649301605	-0.121524487550171	-0.6253992559978345	0.9390151113469447	0.9390151113468503	-0.03600612908264741	0.174508026360434	0.3069645045102903	0.1377475026703288	0.5236913708857466	0.224578022868539	0.5136043636834972	-2.080054882622096	-0.0002660541428578384	-0.1746074945778383	0.8018638870184371	-1.962935635660659	-1.962935635660802	0.4951678848167104	-9.194207915411837e-06	-0.5254975578073788	-0.2096827185953415	-0.1731914745261761	0.01983903796217318	0.0175870783141553	-0.2837736668777397	-0.007986108177900226	-0.007201084602342831	0.2195539799272898	-9.196711867461891	-44.82182474483271	-10.34479409989811	1.350864077821355	-1.180675179952318	-627.889198067288	52.16774151816645	0.15714511897587	0.5513408592684413	-0.5366735865335015	-0.9922880364439657	-0.2692158626797231	-0.6788242434037428	1.778221110604097	-1.337422436108468	-1.337422436108467	0.458149637053011	-0.01933344128500285	-0.6788365660143271	-0.4604433933942557	1.736877656838611e-07	1.442347755885136e-07	-1.061614950913156e-06	1.522172887519353e-06	1.711564130228064e-08	3.373684713194335e-07	-8.194641426595367e-07
1.51	-0.1060477658391983	0.04019774831410376	0.8205972897388425	0.8126063103237514	-0.2266663885506627	-0.123303996348853	-0.6172932544913061	0.9193213850235973	0.9193213850235437	-0.03102965825897052	0.1745080408086722	0.3016761144883292	0.1356265501683328	0.5251090366279325	0.2300175500797668	0.5079249441321898	-2.089306028465885	-0.003160274910659468	-0.1813064075735528	0.8192264420922841	-1.975541112388373	-1.975541112388495	0.5000917441627364	1.136812094917058e-05	-0.5320958403190915	-0.2144674617349404	-0.1655465017524625	0.01786252472132752	0.01775482706044043	-0.280327102987588	-0.005841015004752408	-0.007905147602979525	0.2126600715011025	-10.22938765956343	-43.84570795853254	-10.31510544721306	1.158172842279857	-1.319420104916118	-622.9525361742182	52.18602320786963	0.1221130810240355	0.5361209139530591	-0.5997886957607256	-0.8505841656538524	-0.3007131191083667	-0.6669789861950066	1.698776876546643	-1.181864839786021	-1.181864839782862	0.5042077400324178	0.01290118264485299	-0.6375980844806232	-0.4814143624726799	1.647916478653052e-07	1.394954860190285e-07	-9.779717732408195e-07	1.488313289089335e-06	1.145162211930448e-08	3.323612501138783e-07	-7.894330169572223e-07
1.52	-0.1007915808102156	0.04252443188483311	0.825645442188231	0.7916738188149569	-0.2267126552910586	-0.125150805109201	-0.6090169265998852	0.8995096530232355	0.8995096530232246	-0.0260050081105039	0.1745082909027307	0.296324286843105	0.1334589653172948	0.5260481335374826	0.2352915677671201	0.5015970223276278	-2.09691942660197	-0.006102013089579782	-0.1880674869108563	0.8359291639969971	-1.986536771063411	-1.986536771063513	0.5048037497749635	3.793495672117946e-05	-0.5381850824600397	-0.219009188403739	-0.1579015289787536	0.0158860114804784	0.01792257580673622	-0.2768805390974357	-0.003695921831605261	-0.008609210603622106	0.2057661630749112	-11.26464774844271	-42.8699529000253	-10.28393858863046	0.963484769106615	-1.469463233415911	-618.0165330312215	52.26630141619971	0.06143135244873364	0.5182389544935478	-0.6663740371844524	-0.6647384949029096	-0.2787193449034644	-0.691257511721553	1.646254476777288	-1.015458825573246	-1.015458825573243	0.4157788902931943	-0.01813253990350651	-0.5770284918614298	-0.4118400992342139	1.622229307671196e-07	1.308604703873739e-07	-1.037074696219253e-06	1.380018419094226e-06	2.393063765021167e-08	3.247400084527621e-07	-8.350680785294182e-07
1.53	-0.09552843156071809	0.04490296595104099	0.8306271400538799	0.7706734412252575	-0.2267884543415348	-0.1270661670242051	-0.6005769266389368	0.8795960074490817	0.8795960074490889	-0.02093493200425144	0.1745090948699655	0.2909141677729418	0.1312473929500474	0.5264995383424725	0.2403810273334082	0.4946410011467555	-2.102875682033392	-0.009060833425826717	-0.1950021669688315	0.851952703313238	-1.995914342425493	-1.995914342425581	0.5091803466818162	0.0001124328466527623	-0.5437495976280383	-0.2232578320333799	-0.1503184088988254	0.01378603248253293	0.0181116727959296	-0.2735630244700258	-0.00160620638474749	-0.009392713354591121	0.1989178700781432	-12.2996610978404	-41.93944839825726	-10.30143876582037	0.783687261423808	-1.556972676289524	-613.3688738715383	52.31621738392001	0.02467711941610871	0.4991812739932155	-0.7253868519624688	-0.518994685936478	-0.3048548122115973	-0.6939143640428166	1.562684927145346	-0.8572398104387767	-0.8572398104368304	0.4437577002588171	0.01885138504086018	-0.5327428343279661	-0.4243433388484537	1.663770769343276e-07	1.180862458146644e-07	-1.247845351139129e-06	1.192636073061209e-06	5.568662756461971e-08	3.143413700576123e-07	-9.610984640807804e-07
1.54	-0.09026323184819261	0.04733137097617111	0.8355362435690353	0.7496219159575082	-0.2268939198822186	-0.1290507439620307	-0.5919802350312067	0.8595969194575235	0.8595969194575512	-0.01582205840705747	0.1745103659024166	0.2854510875900869	0.1289947407776996	0.5264582261431429	0.2452657595515683	0.4870781522289301	-2.107148962211796	-0.01203531113112511	-0.2019104914750997	0.8672674933533938	-2.003625254544102	-2.003625254544177	0.5133632479637689	0.0001313480005596186	-0.5487773049983924	-0.2272251494237986	-0.1427352888189013	0.01168605348458614	0.01830076978513961	-0.2702455098426152	0.0004835090621100118	-0.01017621610556262	0.1920695770813717	-13.33091428277998	-41.00996887365579	-10.31827887554034	0.6028252314704471	-1.651415418281463	-608.7312594031157	52.42137234929849	-0.03711204841514805	0.4772934848679506	-0.7877395845750339	-0.3281434442989048	-0.2818508187137574	-0.6859864013801618	1.504504621560297	-0.6821269768788456	-0.6821269768788439	0.377039765313151	-0.02924908710845051	-0.4696669323325135	-0.3555748513897882	1.711026364934021e-07	1.062375827892825e-07	-1.459565801366759e-06	9.978520497952837e-07	8.725499036639916e-08	3.018438327205278e-07	-1.073909818911678e-06
